<?xml version="1.0" standalone="no"?><!DOCTYPE svg PUBLIC "-//W3C//DTD SVG 1.1//EN" "http://www.w3.org/Graphics/SVG/1.1/DTD/svg11.dtd"><svg t="1578283323780" class="icon" viewBox="0 0 1024 1024" version="1.1" xmlns="http://www.w3.org/2000/svg" p-id="8650" xmlns:xlink="http://www.w3.org/1999/xlink" width="200" height="200"><defs><style type="text/css">@font-face { font-family: element-icons; src: url("chrome-extension://moombeodfomdpjnpocobemoiaemednkg/fonts/element-icons.woff") format("woff"), url("chrome-extension://moombeodfomdpjnpocobemoiaemednkg/fonts/element-icons.ttf ") format("truetype"); }
</style></defs><path d="M400.5 221.5c90.4 0 405.9-0.1 496.3 0 44.1 0.1 65.2 20.9 65.2 64.8 0.1 166.9 0.1 333.8 0 500.7 0 43.8-21.1 65.5-64.9 65.5-181.4 0.2-588 0.2-769.4 0-44 0-65.4-21.4-65.5-65.2-0.2-166.9-0.2-333.8 0-500.7 0-43.9 21.4-65.1 65.2-65.2 91 0 182 0.1 273.1 0.1zM110.9 525.7c0 81.1-0.1 160 0 238.9 0 30.8 8.2 38.6 39.7 38.6h723.8c31.3 0 38.9-7.5 38.9-39.1 0.1-73.9 0.1-147.9 0-221.8 0-5.4-0.8-10.8-1.2-16.6H110.9zM111 377h802.4c0-22.7 0.1-44.1 0-65.5-0.1-34.4-7.7-41.9-42.7-41.9H154.3c-4.4 0-8.9-0.2-13.3 0.2-19.1 1.6-29.2 11-29.8 30-0.8 25.1-0.2 50.4-0.2 77.2z" p-id="8651"></path><path d="M486.4 678h47.2c10.1 0 18 2.4 23.7 7.2 5.5 4.6 8.2 10.9 8.2 18.8 0 5.8-1.4 10.7-4.3 14.8-3 3.9-7 6.7-12 8.5 6.8 1.4 12 4.1 15.5 8.2s5.2 9.7 5.2 16.8c0 10.3-3.6 17.9-10.7 22.9-6.1 4.1-14.6 6.1-25.6 6.1h-47.2V678z m15.8 13v30.8h27.2c7.1 0 12.3-1.3 15.6-3.8 3.2-2.6 4.8-6.7 4.8-12.2 0-5.2-1.6-9-4.8-11.3-3.1-2.4-8.2-3.6-15.3-3.6h-27.5z m0 43.7v33.6h29.2c6.5 0 11.7-1.1 15.6-3.2 4.7-2.8 7.1-7.1 7.1-13 0-6.1-1.8-10.5-5.5-13.3-3.6-2.7-9.2-4.1-16.8-4.1h-29.6zM615.5 678h17.9l39.8 103.3h-16.9l-9.7-26.6h-44.4l-9.7 26.6h-16.8L615.5 678z m-8.5 63.7h34.9L624.8 695h-0.6L607 741.7zM683.3 678h15.9l52.8 76.8h0.6V678h15.8v103.3h-15.3l-53.4-77.7h-0.6v77.7h-15.8V678zM854.5 678h20l-45.7 44.4 52.4 58.9H860l-42-48.6-13.5 12.9v35.7h-15.8V678h15.8v49.9l50-49.9zM178.5 673.4c-9.7 0-17.7-8-17.7-17.7v-76.4c0-9.7 8-17.7 17.7-17.7s17.7 8 17.7 17.7v76.4c0 9.8-7.9 17.7-17.7 17.7zM238.3 673.4c-9.7 0-17.7-8-17.7-17.7v-76.4c0-9.7 8-17.7 17.7-17.7s17.7 8 17.7 17.7v76.4c0 9.8-8 17.7-17.7 17.7zM298.1 673.4c-9.7 0-17.7-8-17.7-17.7v-76.4c0-9.7 8-17.7 17.7-17.7s17.7 8 17.7 17.7v76.4c0 9.8-8 17.7-17.7 17.7z" p-id="8652"></path></svg>