<?xml version="1.0" standalone="no"?><!DOCTYPE svg PUBLIC "-//W3C//DTD SVG 1.1//EN" "http://www.w3.org/Graphics/SVG/1.1/DTD/svg11.dtd"><svg t="1581300637743" class="icon" viewBox="0 0 1024 1024" version="1.1" xmlns="http://www.w3.org/2000/svg" p-id="9630" xmlns:xlink="http://www.w3.org/1999/xlink" width="200" height="200"><defs><style type="text/css">@font-face { font-family: element-icons; src: url("chrome-extension://moombeodfomdpjnpocobemoiaemednkg/fonts/element-icons.woff") format("woff"), url("chrome-extension://moombeodfomdpjnpocobemoiaemednkg/fonts/element-icons.ttf ") format("truetype"); }
</style></defs><path d="M873.6 146.9v727H755.3v-727h118.3z m25.4-42.3H729.9c-9.3 0-16.9 7.7-16.9 17.1v777.2c0 9.5 7.6 17.1 16.9 17.1h169c9.3 0 16.9-7.7 16.9-17.1V121.7c0-9.4-7.5-17.1-16.8-17.1m-245.2 42.3v727H535.5v-727h118.3z m25.4-42.3h-169c-9.3 0-16.9 7.7-16.9 17.1v777.2c0 9.5 7.6 17.1 16.9 17.1h169c9.3 0 16.9-7.7 16.9-17.1V121.7c0-9.4-7.6-17.1-16.9-17.1" p-id="9631"></path><path d="M331.9 167.9l114.3 30.6-179.4 669.6-114.3-30.6 179.4-669.6z m-18-47.9c-7.5 0-14.4 5.1-16.5 12.8L105 850.8c-2.4 9.1 2.9 18.5 12 20.9l163.3 43.7c1.4 0.4 2.9 0.5 4.3 0.5 7.5 0 14.4-5.1 16.5-12.8l192.3-718c2.5-9.1-2.8-18.5-11.9-20.9l-163.3-43.7c-1.3-0.3-2.8-0.5-4.3-0.5m534.4 86.1c0 4.5-1.8 8.8-5 12-3.2 3.2-7.4 5-12 5h-33.8c-9.3 0-16.9-7.6-16.9-16.9 0-9.3 7.6-16.9 16.9-16.9h33.8c4.5 0 8.8 1.8 12 5 3.2 3 5 7.2 5 11.8m0 67.6c0 4.5-1.8 8.8-5 12-3.2 3.2-7.4 5-12 5h-33.8c-9.3 0-16.9-7.6-16.9-16.9 0-9.3 7.6-16.9 16.9-16.9h33.8c4.5 0 8.8 1.8 12 5 3.2 3 5 7.3 5 11.8m0 67.6c0 4.5-1.8 8.8-5 12-3.2 3.2-7.4 5-12 5h-33.8c-9.3 0-16.9-7.6-16.9-16.9 0-9.3 7.6-16.9 16.9-16.9h33.8c4.5 0 8.8 1.8 12 5 3.2 3 5 7.3 5 11.8M628.5 214.7c0 4.5-1.8 8.8-5 12-3.2 3.2-7.4 5-12 5h-33.8c-9.3 0-16.9-7.6-16.9-16.9 0-9.3 7.6-16.9 16.9-16.9h33.8c4.5 0 8.8 1.8 12 5 3.2 3 5 7.3 5 11.8m0 67.6c0 4.5-1.8 8.8-5 12-3.2 3.2-7.4 5-12 5h-33.8c-9.3 0-16.9-7.6-16.9-16.9 0-9.3 7.6-16.9 16.9-16.9h33.8c4.5 0 8.8 1.8 12 5 3.2 3 5 7.4 5 11.8m0 67.7c0 4.5-1.8 8.8-5 12-3.2 3.2-7.4 5-12 5h-33.8c-9.3 0-16.9-7.6-16.9-16.9 0-9.3 7.6-16.9 16.9-16.9h33.8c4.5 0 8.8 1.8 12 5 3.2 3 5 7.2 5 11.8" p-id="9632"></path><path d="M399.8 259.6c-1.2 4.3-4 8.1-7.9 10.2-3.9 2.3-8.5 2.8-12.9 1.7l-32.7-8.8c-9.1-2.4-14.4-11.7-12-20.7 2.4-9.1 11.7-14.4 20.7-12l32.7 8.8c9.1 2.5 14.5 11.7 12.1 20.8z m-17.6 65.3c-1.2 4.3-4 8.1-7.9 10.2-3.9 2.3-8.5 2.8-12.9 1.7l-32.7-8.8c-9.1-2.4-14.4-11.7-12-20.7 2.4-9.1 11.7-14.4 20.7-12l32.7 8.8c4.3 1.2 8.1 4 10.2 7.9 2.5 3.9 3.1 8.5 1.9 12.9z m-17.4 65.3c-1.2 4.3-4 8.1-7.9 10.2-3.9 2.3-8.5 2.8-12.9 1.7l-32.7-8.8c-9.1-2.4-14.4-11.7-12-20.7 2.4-9.1 11.7-14.4 20.7-12l32.7 8.8c4.3 1.2 8.1 4 10.2 7.9 2.4 4 3 8.6 1.9 12.9z m0 0" p-id="9633"></path></svg>