<?xml version="1.0" standalone="no"?><!DOCTYPE svg PUBLIC "-//W3C//DTD SVG 1.1//EN" "http://www.w3.org/Graphics/SVG/1.1/DTD/svg11.dtd"><svg t="1582683084118" class="icon" viewBox="0 0 1024 1024" version="1.1" xmlns="http://www.w3.org/2000/svg" p-id="8761" xmlns:xlink="http://www.w3.org/1999/xlink" width="200" height="200"><defs><style type="text/css"></style></defs><path d="M173.202 627.93l472.58-472.578C468.239 196.49 223.94 431.343 173.202 627.93zM656.516 156.194L173.202 639.458c-8.722 27.872-13.712 54.816-13.712 79.971 0 60.493 63.556 137.091 137.127 137.091 25.223 0 137.177-157.291 137.177-193.56 0-37.266-32.294-64.554-32.294-96.831 0-32.243 142.115-177.387 177.457-177.404 35.236 0 52.372 32.208 88.711 32.208 26.15 0.018 185.472-96.763 185.472-137.057-0.033-40.312-71.643-137.075-137.16-137.075-18.376 0-38.371 3.32-59.464 9.393zM885.416 750.329L729.743 642.624v51.135H511.029V806.97h218.714v51.064z" p-id="8762"></path></svg>