<?xml version="1.0" standalone="no"?><!DOCTYPE svg PUBLIC "-//W3C//DTD SVG 1.1//EN" "http://www.w3.org/Graphics/SVG/1.1/DTD/svg11.dtd"><svg t="1575957306083" class="icon" viewBox="0 0 1024 1024" version="1.1" xmlns="http://www.w3.org/2000/svg" p-id="3542" xmlns:xlink="http://www.w3.org/1999/xlink" width="200" height="200"><defs><style type="text/css">@font-face { font-family: element-icons; src: url("chrome-extension://moombeodfomdpjnpocobemoiaemednkg/fonts/element-icons.woff") format("woff"), url("chrome-extension://moombeodfomdpjnpocobemoiaemednkg/fonts/element-icons.ttf ") format("truetype"); }
</style></defs><path d="M879.331 714.95H831.07v91.19c0 17.04-14.631 30.847-32.683 30.847H144.688c-18.061 0-32.684-13.807-32.684-30.847V359.612c0-2.367 0.292-4.669 0.826-6.883-3.986-16.352 6.65-32.78 24.01-36.836l547.804-127.989c8.428-1.931 17.294-0.689 24.733 3.546 7.402 4.232 12.766 11.049 14.845 19.002l31.026 118.316h43.139c18.052 0 32.683 13.804 32.683 30.844v91.19h48.261c18.053 0 32.683 13.804 32.683 30.847v202.455c0 17.043-14.63 30.846-32.683 30.846zM668.594 255.202l-314.811 73.566h334.104l-19.293-73.566z m97.105 135.256H177.375v384.836h588.324V714.95H655.204c-10.908 0-21.121-5.164-27.175-13.704l-71.605-101.212c-7.332-10.392-7.332-23.889 0-34.249l71.605-101.241c6.054-8.572 16.267-13.742 27.175-13.742h110.495v-60.344z m80.948 122.037H672.68l-49.79 70.4 49.79 70.365H846.647V512.495z m-150.988 96.091c-15.043 0-27.236-11.508-27.236-25.703s12.193-25.706 27.236-25.706c15.042 0 27.239 11.511 27.239 25.706s-12.197 25.703-27.239 25.703z" p-id="3543"></path></svg>