<?xml version="1.0" standalone="no"?><!DOCTYPE svg PUBLIC "-//W3C//DTD SVG 1.1//EN" "http://www.w3.org/Graphics/SVG/1.1/DTD/svg11.dtd"><svg t="1582682524939" class="icon" viewBox="0 0 1024 1024" version="1.1" xmlns="http://www.w3.org/2000/svg" p-id="1703" xmlns:xlink="http://www.w3.org/1999/xlink" width="200" height="200"><defs><style type="text/css"></style></defs><path d="M821.6 380.1H673.2V233.2c0-56.7-46.1-102.7-102.7-102.7h-355c-56.7 0-102.7 46.1-102.7 102.7v683.3h802.7V474c0-51.8-42.1-93.9-93.9-93.9zM319.8 855.8V731.9c0-5.8 4.8-10.6 10.6-10.6h125.1c5.8 0 10.6 4.8 10.6 10.6v123.9H319.8z m206.4 0.6V731.9c0-38.9-31.7-70.6-70.6-70.6H330.4c-38.9 0-70.6 31.7-70.6 70.6v124.5h-87.1V233.2c0-23.6 19.2-42.7 42.7-42.7h355c23.6 0 42.7 19.2 42.7 42.7v146.9h-0.1v476.4h-86.8z m329.3 0H673.2V440.1h148.4c18.7 0 34 15.2 34 34v382.3z" p-id="1704"></path><path d="M500.6 315.9H285.4c-16.6 0-30 13.4-30 30s13.4 30 30 30h215.1c16.6 0 30-13.4 30-30s-13.4-30-29.9-30z m0 163.4H285.4c-16.6 0-30 13.4-30 30s13.4 30 30 30h215.1c16.6 0 30-13.4 30-30 0.1-16.6-13.4-30-29.9-30z" p-id="1705"></path></svg>