<?xml version="1.0" standalone="no"?><!DOCTYPE svg PUBLIC "-//W3C//DTD SVG 1.1//EN" "http://www.w3.org/Graphics/SVG/1.1/DTD/svg11.dtd"><svg t="1566380912866" class="icon" viewBox="0 0 1024 1024" version="1.1" xmlns="http://www.w3.org/2000/svg" p-id="1996" width="24" height="24"><path d="M628.736 419.84H532.48v24.576h96.256v-24.576zM573.44 534.528l20.48-14.336h-61.44v30.72h71.68c-12.288-8.192-20.48-12.288-30.72-16.384z m-180.224-90.112h96.256v-24.576h-96.256v24.576z m528.384-18.432v-167.936c0-40.96-32.768-73.728-73.728-73.728H176.128C135.168 184.32 102.4 217.088 102.4 258.048v167.936c47.104 0 86.016 38.912 86.016 86.016S149.504 598.016 102.4 598.016v167.936c0 40.96 32.768 73.728 73.728 73.728h671.744c40.96 0 73.728-32.768 73.728-73.728v-167.936c-47.104 0-86.016-38.912-86.016-86.016 0-47.104 38.912-86.016 86.016-86.016z m-593.92-88.064h161.792v-24.576H532.48v24.576h167.936v32.768H532.48v24.576h137.216v124.928h-57.344c34.816 16.384 71.68 40.96 90.112 59.392l-28.672 22.528c-6.144-6.144-16.384-14.336-24.576-22.528-49.152 2.048-100.352 2.048-147.456 4.096 24.576 12.288 53.248 32.768 67.584 47.104L540.672 655.36c-14.336-16.384-45.056-36.864-69.632-51.2l24.576-20.48c-63.488 2.048-122.88 2.048-167.936 2.048l-2.048-34.816h161.792v-30.72h-135.168v-124.928h135.168v-24.576H327.68v-32.768z m22.528 366.592l-34.816-20.48c18.432-20.48 32.768-53.248 40.96-79.872l34.816 14.336c-8.192 28.672-22.528 63.488-40.96 86.016z m221.184 6.144h-94.208c-55.296 0-69.632-10.24-69.632-47.104v-57.344h40.96v57.344c0 12.288 4.096 14.336 30.72 14.336h86.016c20.48 0 24.576-6.144 26.624-40.96 8.192 6.144 24.576 12.288 34.816 14.336-2.048 47.104-14.336 59.392-55.296 59.392z m98.304-8.192c-6.144-22.528-26.624-57.344-47.104-86.016l34.816-12.288c20.48 26.624 40.96 59.392 49.152 83.968 0 2.048-36.864 14.336-36.864 14.336zM393.216 493.568h96.256v-24.576h-96.256v24.576z m235.52-24.576H532.48v24.576h96.256v-24.576z" fill="#F37938" p-id="1997"></path></svg>