<?xml version="1.0" standalone="no"?><!DOCTYPE svg PUBLIC "-//W3C//DTD SVG 1.1//EN" "http://www.w3.org/Graphics/SVG/1.1/DTD/svg11.dtd"><svg t="1581300372274" class="icon" viewBox="0 0 1024 1024" version="1.1" xmlns="http://www.w3.org/2000/svg" p-id="7615" xmlns:xlink="http://www.w3.org/1999/xlink" width="200" height="200"><defs><style type="text/css">@font-face { font-family: element-icons; src: url("chrome-extension://moombeodfomdpjnpocobemoiaemednkg/fonts/element-icons.woff") format("woff"), url("chrome-extension://moombeodfomdpjnpocobemoiaemednkg/fonts/element-icons.ttf ") format("truetype"); }
</style></defs><path d="M235.039619 808.906154c-28.9084 0-49.927109-23.754007-49.927109-52.922327L185.11251 529.367553c0-7.370875-5.977132-13.328563-13.334703-13.328563-7.370875 0-13.334703 5.957689-13.334703 13.328563l0 226.617297c0 43.884486 32.984229 79.589686 76.595492 79.589686 7.357572 0 13.334703-5.963829 13.334703-13.334703C248.374322 814.871005 242.397191 808.906154 235.039619 808.906154z" p-id="7616"></path><path d="M300.110637 809.400411l-13.334703 0c-7.357572 0-13.334703 5.963829-13.334703 13.334703s5.977132 13.334703 13.334703 13.334703l13.334703 0c7.370875 0 13.334703-5.963829 13.334703-13.334703S307.481512 809.400411 300.110637 809.400411z" p-id="7617"></path><path d="M866.090039 489.369583l-54.250578 0L811.839461 367.443673c0-41.702798-31.800263-76.978209-71.643714-87.919399 0.827855-4.559852 0.481977-9.392928-1.254573-14.049994l-57.543577-154.369833c-2.474354-6.628978-7.475252-12.006452-13.908778-14.94334-6.445806-2.936889-13.776771-3.210112-20.404726-0.723477L185.269076 267.830955c-4.628414 1.727341-8.487302 4.604878-11.385305 8.184403l-21.364587 0c-50.968835 0-87.416955 41.019229-87.416955 91.428316l0 468.548372c0 51.515281 36.449143 93.420693 87.416955 93.420693l561.889247 0c50.968835 0 97.43103-41.905412 97.43103-93.420693L811.839461 729.392192l54.250578 0c51.046606 0 92.430132-41.383526 92.430132-92.429109L958.520171 581.800739C958.520171 530.74697 917.136645 489.369583 866.090039 489.369583zM640.742664 154.73413l45.203528 121.281227L315.844993 276.015358 640.742664 154.73413zM758.501672 835.992045c0 21.721721-22.906709 40.080857-44.093241 40.080857L152.519184 876.072903c-21.187555 0-34.079166-18.359137-34.079166-40.080857L118.440018 367.443673c0-21.3564 12.163017-38.089503 34.079166-38.089503l561.889247 0c21.916149 0 44.093241 16.733103 44.093241 38.089503l0 121.92591L677.582711 489.369583c-51.04763 0-92.431156 41.378409-92.431156 92.431156l0 55.162344c0 51.045583 41.383526 92.429109 92.431156 92.429109l80.918961 0L758.501672 835.992045zM905.182382 636.963083c0 21.589714-17.502629 39.09132-39.092343 39.09132L677.582711 676.054403c-21.591761 0-39.092343-17.502629-39.092343-39.09132L638.490368 581.800739c0-21.589714 17.501606-39.099507 39.092343-39.099507l188.507328 0c21.590737 0 39.092343 17.509792 39.092343 39.099507L905.182382 636.963083z" p-id="7618"></path><path d="M705.723631 582.815859c-14.116509 0-25.562189 11.460006-25.562189 25.576515 0 14.114462 11.446703 25.548886 25.562189 25.548886 14.102183 0 25.561166-11.434423 25.561166-25.548886C731.284797 594.275865 719.825814 582.815859 705.723631 582.815859z" p-id="7619"></path></svg>