<?xml version="1.0" standalone="no"?><!DOCTYPE svg PUBLIC "-//W3C//DTD SVG 1.1//EN" "http://www.w3.org/Graphics/SVG/1.1/DTD/svg11.dtd"><svg t="1581300572757" class="icon" viewBox="0 0 1024 1024" version="1.1" xmlns="http://www.w3.org/2000/svg" p-id="8642" xmlns:xlink="http://www.w3.org/1999/xlink" width="200" height="200"><defs><style type="text/css">@font-face { font-family: element-icons; src: url("chrome-extension://moombeodfomdpjnpocobemoiaemednkg/fonts/element-icons.woff") format("woff"), url("chrome-extension://moombeodfomdpjnpocobemoiaemednkg/fonts/element-icons.ttf ") format("truetype"); }
</style></defs><path d="M941.61106 420.762019l-32.896224-32.444946L698.958554 205.709105l0 0.415462-118.130468-100.347452c-74.766844-75.208912-146.32153 0-146.32153 0S189.515796 319.098595 107.235838 389.490805c-94.877881 81.167624-7.820106 121.191176-7.820106 121.191176l89.405239 43.74327 1.074472 152.292522-75.958996 69.240991c-53.618175 78.193897 14.521738 141.855822 14.521738 141.855822 96.059799 96.069009 186.531324-12.277628 186.531324-12.277628l464.661855 0c39.096437-5.588275 45.797046-56.973596 45.797046-56.973596l3.350304-287.058878 107.234303-50.261731c46.908356-43.563168 5.582135-90.480734 5.582135-90.480734L941.61106 420.762019zM258.055822 889.414769l5.116531-7.163143c0 0-43.094494 56.122205-96.151897 3.069919 0 0-49.704029-39.096437-6.139837-87.126336l216.316697-199.948915c0 0-27.114544-185.500854 147.07366-177.918155l5.40101 23.880897-70.737064 70.454632 96.603175 99.030457 67.398016-68.88488 30.243815 9.775644c0 0 7.423063 151.634536-188.105169 129.300878L258.055822 889.414769zM885.360941 476.060463l-1.023306-0.002047-111.317295 58.267055-0.653893 270.127254c-2.238994 53.617152-29.509081 51.65752-29.509081 51.65752l-375.958604-1.023306 123.518175-116.362194c268.614807 2.62171 202.196095-233.16748 202.196095-233.16748l-82.753749-10.260691-52.217269 48.388057-27.299763-29.624714 50.856271-47.967478-9.447163-90.122577C311.327096 349.775268 327.339792 574.538335 327.339792 574.538335l-85.639472 84.526115 0.098237-135.073348-105.270579-48.208978c-48.024783-20.10592 8.749268-58.366316 8.749268-58.366316l306.884412-266.213108c61.5928-59.202357 113.286136 4.931313 113.286136 4.931313l315.820945 274.318716C919.253866 456.145901 885.360941 476.060463 885.360941 476.060463z" p-id="8643"></path></svg>