<?xml version="1.0" standalone="no"?><!DOCTYPE svg PUBLIC "-//W3C//DTD SVG 1.1//EN" "http://www.w3.org/Graphics/SVG/1.1/DTD/svg11.dtd"><svg t="1575957353488" class="icon" viewBox="0 0 1024 1024" version="1.1" xmlns="http://www.w3.org/2000/svg" p-id="4259" xmlns:xlink="http://www.w3.org/1999/xlink" width="200" height="200"><defs><style type="text/css">@font-face { font-family: element-icons; src: url("chrome-extension://moombeodfomdpjnpocobemoiaemednkg/fonts/element-icons.woff") format("woff"), url("chrome-extension://moombeodfomdpjnpocobemoiaemednkg/fonts/element-icons.ttf ") format("truetype"); }
</style></defs><path d="M738.9 531.3H285.3c-12.3 0-22.3-9.9-22.3-22.1 0-12.2 10-22.1 22.3-22.1h453.6c12.3 0 22.3 9.9 22.3 22.1 0 12.2-9.9 22.1-22.3 22.1z m0 131.6H285.3c-12.3 0-22.3-9.9-22.3-22.1 0-12.2 10-22.1 22.3-22.1h453.6c12.3 0 22.3 9.9 22.3 22.1 0 12.2-9.9 22.1-22.3 22.1zM494.6 794.5H285.3c-12.3 0-22.3-9.9-22.3-22.1 0-12.2 10-22.1 22.3-22.1h209.3c12.3 0 22.3 9.9 22.3 22.1 0 12.2-9.9 22.1-22.3 22.1z" fill="" p-id="4260"></path><path d="M784.7 961.9H239.5c-59.1 0-107.1-47.6-107.1-106v-686c0-58.5 48-106 107.1-106h545.2c59.1 0 107.1 47.6 107.1 106v685.9c0 58.5-48 106.1-107.1 106.1zM239.5 116.8c-29.6 0-53.6 23.8-53.6 53.1v685.9c0 29.3 24.1 53.1 53.6 53.1h545.2c29.6 0 53.6-23.8 53.6-53.1V169.9c0-29.3-24.1-53.1-53.6-53.1H239.5z" fill="" p-id="4261"></path><path d="M282.6 419.6c-6 0-12-2.4-16.4-7.2-8.3-9-7.7-22.9 1.3-31.2l162.6-147.7c8.7-7.9 22.1-7.8 30.7 0.5l101.4 98 156.3-138.6c9.1-8.1 23.2-7.4 31.5 1.7 8.2 9.1 7.4 23-1.7 31.2L576.4 378.6c-8.8 7.7-22 7.5-30.5-0.6l-101.2-97.8-147 133.6c-4.3 3.8-9.7 5.8-15.1 5.8z" fill="" p-id="4262"></path></svg>