<?xml version="1.0" standalone="no"?><!DOCTYPE svg PUBLIC "-//W3C//DTD SVG 1.1//EN" "http://www.w3.org/Graphics/SVG/1.1/DTD/svg11.dtd"><svg t="1583736278738" class="icon" viewBox="0 0 1024 1024" version="1.1" xmlns="http://www.w3.org/2000/svg" p-id="2961" xmlns:xlink="http://www.w3.org/1999/xlink" width="200" height="200"><defs><style type="text/css"></style></defs><path d="M850.346667 83.84a72.32 72.32 0 0 0-50.773334-21.333333H224.64a71.68 71.68 0 0 0-71.893333 72.32v754.346666a71.68 71.68 0 0 0 71.893333 71.893334h574.72a71.68 71.68 0 0 0 71.893333-71.893334V134.826667a72.32 72.32 0 0 0-20.906666-50.986667z m-194.56 50.986667h107.733333A36.053333 36.053333 0 0 1 799.36 170.666667v179.626666h-143.573333z m-215.68 0h143.786666v215.466666h-143.786666zM224.64 170.666667a36.053333 36.053333 0 0 1 35.84-35.84h107.733333v215.466666h-143.573333z m251.52 718.506666h-107.946667V601.813333a35.84 35.84 0 0 1 35.84-35.84h71.893334z m179.626667 0h-107.946667V565.973333h71.893333a35.84 35.84 0 0 1 35.84 35.84zM799.36 853.333333a36.053333 36.053333 0 0 1-35.84 35.84h-35.84V565.973333a71.893333 71.893333 0 0 0-71.893333-71.893333H368.213333a71.893333 71.893333 0 0 0-71.893333 71.893333v323.2h-35.84A36.053333 36.053333 0 0 1 224.64 853.333333V422.186667h574.72V853.333333z" p-id="2962"></path></svg>