<?xml version="1.0" standalone="no"?><!DOCTYPE svg PUBLIC "-//W3C//DTD SVG 1.1//EN" "http://www.w3.org/Graphics/SVG/1.1/DTD/svg11.dtd"><svg t="1581300689203" class="icon" viewBox="0 0 1024 1024" version="1.1" xmlns="http://www.w3.org/2000/svg" p-id="10418" xmlns:xlink="http://www.w3.org/1999/xlink" width="200" height="200"><defs><style type="text/css">@font-face { font-family: element-icons; src: url("chrome-extension://moombeodfomdpjnpocobemoiaemednkg/fonts/element-icons.woff") format("woff"), url("chrome-extension://moombeodfomdpjnpocobemoiaemednkg/fonts/element-icons.ttf ") format("truetype"); }
</style></defs><path d="M876.1 179.9C782.7 86.4 629.9 81.2 512 164.2c-118-83.1-270.7-77.8-364.1 15.6-111.9 111.9-111.9 294 0 406L458.1 896c14.4 14.4 33.5 22.3 53.9 22.3s39.5-7.9 53.9-22.3l310.2-310.2c111.9-111.9 111.9-294 0-405.9z m-53.9 352L512 842.2 201.8 531.9c-82.2-82.2-82.2-216 0-298.2 36.6-36.6 82.3-52 128.3-52 55.6 0 111.8 22.4 153.6 56.6 16.4 13.5 40.2 13.5 56.6 0 76.3-62.6 201-85.5 281.9-4.6 82.2 82.3 82.2 216 0 298.2z" p-id="10419"></path><path d="M369 229.1c-99.8 0-181 81.2-181 181 0 21 17.1 38.1 38.1 38.1s38.1-17.1 38.1-38.1c0-57.8 47-104.8 104.8-104.8 21 0 38.1-17.1 38.1-38.1s-17-38.1-38.1-38.1z" p-id="10420"></path></svg>