<?xml version="1.0" standalone="no"?><!DOCTYPE svg PUBLIC "-//W3C//DTD SVG 1.1//EN" "http://www.w3.org/Graphics/SVG/1.1/DTD/svg11.dtd"><svg t="1575975630802" class="icon" viewBox="0 0 1024 1024" version="1.1" xmlns="http://www.w3.org/2000/svg" p-id="5068" xmlns:xlink="http://www.w3.org/1999/xlink" width="200" height="200"><defs><style type="text/css"></style></defs><path d="M879.935 544.259c10.182-10.885 26.553-23.446 48.656-37.337 26.931-16.925 40.813-48.566 35.025-79.843-4.434-23.959-10.813-47.754-18.961-70.723-10.629-29.965-38.459-50.416-70.23-51.614-62.429-2.352-74.609-14.241-74.715-14.364-0.554-0.816-2.315-5.498-2.741-15.495-0.654-15.345 1.926-36.529 7.67-62.961 6.668-30.682-5.806-62.358-31.603-80.258-10.708-7.429-21.715-14.417-32.71-20.766-10.996-6.349-22.549-12.386-34.337-17.947-10.569-4.985-21.87-7.414-33.090-7.414-18.929-0.001-37.627 6.917-52.217 20.175-47.319 42.998-64.732 43.492-65.45 43.492-0.053 0-0.078-0.002-0.078-0.002-0.113-0.023-16.489-4.619-49.749-57.518-14.37-22.858-39.344-36.31-65.696-36.31-4.679 0-9.404 0.425-14.119 1.295-23.965 4.427-47.762 10.801-70.726 18.94-29.982 10.626-50.445 38.469-51.634 70.254-2.335 62.346-14.213 74.553-14.332 74.66-1.051 0.711-7.111 2.829-20.247 2.829-14.884 0-34.473-2.619-58.219-7.783-5.497-1.196-11.027-1.776-16.505-1.777-25.091-0.001-49.069 12.197-63.764 33.373-7.428 10.706-14.416 21.71-20.764 32.705-6.349 10.995-12.385 22.548-17.943 34.335-13.392 28.402-8.351 62.075 12.771 85.311 18.175 19.995 31.001 37.035 38.117 50.644 4.65 8.895 5.479 13.852 5.403 14.885-0.194 0.929-2.25 5.313-8.833 12.351-10.182 10.885-26.553 23.446-48.656 37.337-26.931 16.925-40.813 48.566-35.025 79.842 4.434 23.959 10.813 47.754 18.961 70.724 10.629 29.965 38.459 50.416 70.23 51.614 62.428 2.352 74.609 14.241 74.715 14.364 0.554 0.816 2.315 5.498 2.741 15.497 0.654 15.345-1.926 36.526-7.67 62.961-6.668 30.682 5.806 62.358 31.603 80.258 10.71 7.429 21.716 14.418 32.711 20.766 10.995 6.349 22.549 12.385 34.337 17.947 10.566 4.985 21.869 7.414 33.089 7.414 18.928 0 37.627-6.917 52.217-20.176 47.319-42.998 64.732-43.492 65.449-43.492 0.053 0 0.078 0.002 0.078 0.002 0.113 0.023 16.489 4.618 49.749 57.518 14.37 22.857 39.344 36.31 65.696 36.31 4.679 0 9.402-0.423 14.118-1.295 23.964-4.427 47.76-10.8 70.727-18.94 29.982-10.626 50.445-38.469 51.634-70.254 2.335-62.347 14.213-74.553 14.332-74.66 1.051-0.711 7.111-2.829 20.247-2.829 14.884 0 34.473 2.619 58.219 7.783 5.497 1.196 11.028 1.777 16.505 1.777 25.091 0 49.068-12.196 63.763-33.372 7.428-10.706 14.416-21.71 20.765-32.706 6.349-10.994 12.385-22.547 17.943-34.334 13.392-28.402 8.351-62.075-12.771-85.311-18.175-19.995-31.001-37.035-38.117-50.644-4.65-8.895-5.479-13.852-5.403-14.885 0.197-0.931 2.252-5.314 8.834-12.353zM857.187 674.352c-4.554 9.659-9.521 19.213-14.956 28.625s-11.227 18.493-17.313 27.266c-28.753-6.252-53.5-9.556-74.714-9.556-78.092 0-108.122 44.807-112.145 152.203-19.185 6.8-38.883 12.076-58.899 15.773-39.635-63.042-75.033-93.826-115.538-93.826-33.843 0-71.255 21.511-117.65 63.666-9.661-4.555-19.219-9.524-28.635-14.961-9.417-5.438-18.498-11.23-27.274-17.317 29.245-134.569-6.123-181.719-142.71-186.867-6.806-19.184-12.086-38.881-15.789-58.896 115.714-72.715 122.755-131.222 30.106-233.147 4.554-9.659 9.521-19.213 14.956-28.625 5.435-9.414 11.227-18.493 17.313-27.266 28.753 6.252 53.501 9.556 74.714 9.556 78.092 0 108.122-44.807 112.145-152.203 19.185-6.8 38.883-12.076 58.899-15.773 39.635 63.042 75.033 93.826 115.538 93.826 33.843 0 71.255-21.511 117.65-63.668 9.661 4.555 19.218 9.524 28.635 14.962 9.417 5.438 18.497 11.23 27.274 17.317-29.245 134.569 6.123 181.719 142.71 186.867 6.806 19.185 12.086 38.881 15.789 58.896-115.714 72.714-122.755 131.221-30.106 233.147z" p-id="5069"></path><path d="M626.196 310.914c-34.806-20.097-74.346-30.718-114.342-30.718-39.497 0-78.551 10.267-112.944 29.689-35.476 20.035-65.044 49.358-85.508 84.803-63.12 109.329-25.508 249.639 83.846 312.777 34.806 20.097 74.346 30.717 114.342 30.717 39.497 0 78.553-10.268 112.945-29.69 35.476-20.035 65.044-49.358 85.508-84.802 30.578-52.962 38.695-114.667 22.857-173.743-15.837-59.074-53.732-108.449-106.703-139.031zM642.822 584.879c-26.953 46.682-77.237 75.681-131.232 75.681-26.389 0-52.508-7.027-75.532-20.319-72.29-41.735-97.157-134.482-55.435-206.746 26.953-46.682 77.236-75.681 131.231-75.681 26.389 0 52.508 7.026 75.532 20.319 35.020 20.219 60.073 52.86 70.542 91.91 10.467 39.049 5.104 79.83-15.105 114.835z" p-id="5070"></path></svg>