<?xml version="1.0" standalone="no"?><!DOCTYPE svg PUBLIC "-//W3C//DTD SVG 1.1//EN" "http://www.w3.org/Graphics/SVG/1.1/DTD/svg11.dtd"><svg t="1582682721820" class="icon" viewBox="0 0 1024 1024" version="1.1" xmlns="http://www.w3.org/2000/svg" p-id="4552" xmlns:xlink="http://www.w3.org/1999/xlink" width="200" height="200"><defs><style type="text/css"></style></defs><path d="M424.7 619.45c0-21.91 1.83-11.82-115.14-245.72-16.11-32.1-55.19-45.06-87.28-28.96a65.013 65.013 0 0 0-28.96 28.96C75.35 609.62 78.13 598.23 78.13 619.45c0 59.81 77.59 108.29 173.27 108.29s173.3-48.48 173.3-108.29zM251.41 402.84l97.46 194.94H153.95l97.46-194.94z m693.08 216.61c0-21.91 1.83-11.82-115.14-245.72-16.11-32.1-55.19-45.06-87.28-28.96a65.013 65.013 0 0 0-28.96 28.96C595.16 609.62 598 598.23 598 619.45c0 59.81 77.59 108.29 173.27 108.29s173.27-48.5 173.27-108.29h-0.05z m-270.73-21.62l97.46-194.94 97.46 194.94H673.76zM792.89 771.1H554.66V372.04a108.349 108.349 0 0 0 62.79-77.5h175.36c11.94 0 21.62-9.68 21.62-21.62v-43.48c0-11.94-9.68-21.62-21.62-21.62H597.49c-35.35-47.58-102.58-57.5-150.16-22.15a107.157 107.157 0 0 0-22.15 22.15H229.76c-11.94 0-21.62 9.68-21.62 21.62v43.24c0 11.94 9.68 21.62 21.62 21.62h175.36a108.408 108.408 0 0 0 62.89 77.74v399.01H229.76c-11.94 0-21.62 9.68-21.62 21.62v43.24c0 11.94 9.68 21.62 21.62 21.62h563.15c11.94 0 21.62-9.68 21.62-21.62v-43.24c-0.01-11.93-9.69-21.6-21.62-21.6l-0.02 0.03z" p-id="4553"></path></svg>