<?xml version="1.0" standalone="no"?><!DOCTYPE svg PUBLIC "-//W3C//DTD SVG 1.1//EN" "http://www.w3.org/Graphics/SVG/1.1/DTD/svg11.dtd"><svg t="1583736077456" class="icon" viewBox="0 0 1024 1024" version="1.1" xmlns="http://www.w3.org/2000/svg" p-id="12706" xmlns:xlink="http://www.w3.org/1999/xlink" width="200" height="200"><defs><style type="text/css"></style></defs><path d="M976.4 772c-25-35.7-64.4-49.8-99.2-62.1-2.9-1-5.8-2.1-8.7-3.1-16.8-6.1-33.7-12.1-50.5-18.1-27.9-9.9-56.7-20.2-84.8-30.6-28.8-10.7-51.4-30.1-60.5-52-6.9-16.6-6.1-34.4 2.3-52.8 3-6.6 9.9-11.9 17.8-18.1 4-3.1 8-6.2 12.1-9.9 17.3-15.6 25.1-33.5 31.6-50.4 0.8-2.1 1.6-4.8 2.6-8.4 1-3.4 3.2-11 5.1-15.9 16-6.9 29.7-20.1 39-37.8 13.3-25.3 16.5-56.2 8.4-80.7-3.1-9.3-8-15.7-11.9-20.9-0.8-1.1-1.6-2.1-2.3-3 1.2-95.4-18.7-166.8-60.9-218.2C669 31.9 596.3 0 512 0S355 31.9 307.5 89.8c-42.2 51.4-62.2 122.8-60.9 218.2-0.7 1-1.5 2-2.3 3-3.9 5.2-8.8 11.6-11.9 20.8-8.1 24.5-4.9 55.4 8.4 80.7 9.4 17.8 23 31 39 37.8 1.9 4.9 4.1 12.5 5.1 15.9 1.1 3.7 1.8 6.3 2.6 8.4 6.5 17 14.2 34.8 31.6 50.4 4.1 3.7 8.1 6.8 12.1 9.9 8 6.2 14.8 11.5 17.8 18.1 8.4 18.4 9.2 36.2 2.3 52.8-9.1 21.9-31.7 41.3-60.5 52-28.1 10.4-56.9 20.7-84.8 30.6-16.9 6-33.7 12-50.5 18.1-2.9 1-5.8 2.1-8.7 3.1-34.8 12.6-74.3 26.7-99.3 62.4-29.2 41.7-27.9 97.5-21.7 137.2 3.6 21.4 13.2 51.3 53.4 63.4C196 1007.7 333.5 1024 512 1024v-44.5c-174 0-307.4-15.7-419.9-49.5-14.3-4.3-19.3-10.6-22.3-27.9-4-25.7-7.5-73.4 14.3-104.5 16.8-24 46.4-34.6 77.7-45.7 3-1.1 5.9-2.1 8.9-3.2 16.8-6.1 33.5-12 50.3-18 28-10 57-20.3 85.4-30.8 40.8-15.1 72.2-43.1 86.1-76.7 11.7-28.1 10.6-58.7-2.9-88.4-7.5-16.5-20.6-26.6-31-34.7-3.5-2.7-6.8-5.3-9.6-7.8-9.1-8.2-13.8-17.6-19.7-33.1-0.4-1.1-0.9-2.9-1.5-5.1-5.7-19.7-11.1-38.4-27.2-43.4l-0.4-0.1c-10.3-3-16.8-12.9-19.8-18.6-7.5-14.2-9.8-33.1-5.5-45.9 0.7-2.1 2.4-4.4 5.1-7.9 2.8-3.7 6.3-8.2 9.2-14.1l2.4-4.9-0.1-5.5c-2-87.6 14.6-151.5 50.7-195.4 39-47.4 99.4-73.6 170.2-73.6 70.7 0 131.2 26.1 170.1 73.6 36.1 44 52.7 107.9 50.7 195.4l-0.1 5.5 2.4 4.9c2.9 5.8 6.4 10.4 9.2 14.1 2.7 3.5 4.4 5.8 5.1 7.9 4.3 12.8 2 31.7-5.5 45.9-3 5.7-9.5 15.7-19.8 18.6l-0.4 0.1c-16.1 5-21.5 23.6-27.2 43.4-0.6 2.2-1.1 4-1.5 5-5.9 15.6-10.6 25-19.8 33.2-2.9 2.6-6.2 5.1-9.6 7.8-10.5 8.1-23.5 18.2-31 34.7-13.6 29.7-14.6 60.3-2.9 88.4 13.9 33.6 45.3 61.6 86.1 76.7 28.4 10.5 57.4 20.9 85.4 30.8 16.8 6 33.6 12 50.3 18 2.9 1.1 5.9 2.1 8.9 3.2 31.3 11.1 60.8 21.7 77.7 45.7 21.8 31.1 18.3 78.9 14.3 104.2-3 17.6-8 23.9-22.3 28.2-112.5 33.8-246 49.5-419.9 49.5v44.5c178.5 0 316-16.3 432.8-51.4 40.2-12.1 49.7-42 53.4-63.7 5.6-39.4 6.8-95.2-22.4-136.9z" p-id="12707"></path><path d="M438.4 892.8l45.3 45.3c7.8 7.8 18.1 11.7 28.3 11.7s20.5-3.9 28.3-11.7l45.3-45.3c10.8-10.8 14.5-26.4 9.7-40.9l-28-84.9c20.9-12.4 33.6-31.5 33.6-52.5 0-37.4-39.1-66.8-89-66.8s-89 29.3-89 66.8c0 21 12.7 40.1 33.6 52.5l-28 84.9c-4.6 14.5-0.9 30.1 9.9 40.9zM512 692.3c27.2 0 44.5 13.2 44.5 22.3 0 6-7.9 14.4-23.1 19.1-0.1 0-0.1 0.1-0.2 0.1s-0.2 0-0.2 0.1c-0.7 0.2-1.3 0.6-2 0.9-0.6 0.3-1.3 0.5-1.9 0.8-0.7 0.4-1.3 0.9-1.9 1.3-0.6 0.4-1.1 0.7-1.6 1.2-0.6 0.5-1.1 1.1-1.6 1.6s-1 0.9-1.4 1.5c-0.5 0.6-0.8 1.2-1.2 1.9-0.4 0.6-0.8 1.1-1.1 1.7-0.3 0.7-0.6 1.3-0.8 2-0.3 0.6-0.6 1.3-0.8 1.9-0.2 0.7-0.3 1.4-0.4 2.2-0.1 0.7-0.3 1.3-0.4 2-0.1 0.8 0 1.5 0 2.3v2c0.1 0.8 0.3 1.6 0.5 2.4 0.1 0.6 0.2 1.2 0.4 1.8 0 0.1 0.1 0.1 0.1 0.2v0.2l33.4 101.3-40.3 40.4-40.2-40.2L505.2 762v-0.2c0-0.1 0.1-0.1 0.1-0.2 0.2-0.6 0.2-1.2 0.4-1.9 0.2-0.8 0.4-1.6 0.5-2.4 0.1-0.7 0-1.4 0-2.1 0-0.8 0.1-1.5 0-2.3-0.1-0.7-0.2-1.4-0.4-2.1-0.1-0.7-0.2-1.4-0.4-2.2-0.2-0.7-0.5-1.3-0.8-2-0.3-0.7-0.5-1.4-0.8-2-0.3-0.6-0.7-1.2-1.1-1.8-0.4-0.6-0.7-1.2-1.2-1.8-0.4-0.6-1-1-1.4-1.5-0.5-0.5-1-1.1-1.5-1.6s-1.2-0.8-1.7-1.2c-0.6-0.4-1.2-0.9-1.8-1.3-0.6-0.3-1.3-0.6-2-0.9-0.7-0.3-1.3-0.6-1.9-0.9h-0.2c-0.1 0-0.1-0.1-0.2-0.1-15.2-4.7-23.1-13.2-23.1-19.1-0.2-8.9 17.1-22.1 44.3-22.1z" p-id="12708"></path></svg>