<?xml version="1.0" standalone="no"?><!DOCTYPE svg PUBLIC "-//W3C//DTD SVG 1.1//EN" "http://www.w3.org/Graphics/SVG/1.1/DTD/svg11.dtd"><svg t="1581300523102" class="icon" viewBox="0 0 1024 1024" version="1.1" xmlns="http://www.w3.org/2000/svg" p-id="8320" xmlns:xlink="http://www.w3.org/1999/xlink" width="200" height="200"><defs><style type="text/css">@font-face { font-family: element-icons; src: url("chrome-extension://moombeodfomdpjnpocobemoiaemednkg/fonts/element-icons.woff") format("woff"), url("chrome-extension://moombeodfomdpjnpocobemoiaemednkg/fonts/element-icons.ttf ") format("truetype"); }
</style></defs><path d="M616.4 893.1H399.9c-10.9 0-19.7-8.3-19.7-18.5v-758c0-10.2 8.8-18.5 19.7-18.5h216.5c10.9 0 19.7 8.3 19.7 18.5v757.9c0 10.3-8.8 18.6-19.7 18.6z m-196.8-37h177.1v-721H419.6v721z" p-id="8321"></path><path d="M832.8 893H616.4c-10.9 0-19.7-8.3-19.7-18.5v-573c0-10.2 8.8-18.5 19.7-18.5h216.5c10.9 0 19.7 8.3 19.7 18.5v573c-0.1 10.2-8.9 18.5-19.8 18.5z m-196.7-37h177.1V320H636.1v536zM399.9 893.1H183.5c-10.9 0-19.7-8.3-19.7-18.5V430.9c0-10.2 8.8-18.5 19.7-18.5H400c10.9 0 19.7 8.3 19.7 18.5v443.7c-0.1 10.2-8.9 18.5-19.8 18.5z m-196.8-37h177.1V449.4H203.1v406.7z" p-id="8322"></path><path d="M913.1 893.1H103.9c-10.2 0-18.5-8.3-18.5-18.5s8.3-18.5 18.5-18.5h809.2c10.2 0 18.5 8.3 18.5 18.5s-8.3 18.5-18.5 18.5z" p-id="8323"></path></svg>